<svg width="95" height="60" viewBox="0 0 130 82" fill="none" xmlns="http://www.w3.org/2000/svg">
<path d="M43.2372 2.24506L10.0009 20.2442C1.77316 24.6577 -2.61166 37.3886 1.66479 45.7636C4.10728 50.5469 14.2774 70.2967 15.5778 73.0007C16.8783 75.7046 23.2388 81.0715 30.1078 81.1208C36.9767 81.1701 55.2329 81.3756 60.293 81.2277C67.9789 81.5318 79.091 72.187 79.1077 63.5326C79.1244 54.8782 79.5245 29.4986 79.2077 22.6195C79.2077 15.1403 73.4308 10.5871 69.0793 7.46399C63.8692 3.71622 58.6174 0.691708 56.55 0.3383C52.0203 -0.477744 47.3442 0.192009 43.2372 2.24506Z" fill="black"/>
<path d="M129.129 35.2114L129.134 35.2124C129.393 35.2468 129.628 35.3806 129.79 35.5864C129.945 35.7852 130.019 36.0357 129.996 36.2866V38.0396C129.996 39.7642 129.469 41.1391 128.581 42.1177C127.775 43.0042 126.695 43.5409 125.502 43.731V44.9966C125.514 45.1272 125.5 45.2591 125.46 45.3843C125.418 45.5183 125.346 45.6412 125.252 45.7456C125.158 45.85 125.044 45.9339 124.916 45.9907C124.787 46.0475 124.648 46.0766 124.508 46.0767C124.368 46.0767 124.229 46.0474 124.101 45.9907C123.973 45.9339 123.857 45.85 123.763 45.7456C123.669 45.6413 123.599 45.5182 123.556 45.3843C123.516 45.2591 123.502 45.1273 123.514 44.9966V43.7339C122.303 43.5512 121.213 43.0158 120.403 42.1265C119.51 41.1461 118.988 39.7672 118.988 38.0396V36.3003C118.978 36.2196 118.979 36.1375 118.992 36.0571C119.01 35.9291 119.053 35.8062 119.119 35.6948C119.185 35.582 119.273 35.4834 119.377 35.4048C119.482 35.3263 119.601 35.2687 119.727 35.2358C119.853 35.203 119.985 35.195 120.115 35.2124L120.125 35.2134C120.38 35.254 120.612 35.3915 120.769 35.5981C120.921 35.7974 120.991 36.0466 120.967 36.2954V38.0972C120.967 39.3895 121.375 40.3338 121.997 40.9536C122.62 41.575 123.494 41.9067 124.496 41.9067C125.497 41.9067 126.37 41.5749 126.991 40.9536C127.61 40.334 128.015 39.3899 128.015 38.0972V36.2935C128.005 36.2143 128.007 36.134 128.02 36.0552C128.057 35.798 128.195 35.5667 128.401 35.4097C128.609 35.2514 128.87 35.1801 129.129 35.2114ZM92.7935 35.2007C94.0653 35.2008 95.3608 35.5655 96.3491 36.3013C97.348 37.045 98.0259 38.1662 98.0259 39.6265C98.0258 40.382 97.8562 41.4362 97.0728 42.3032C96.2821 43.1782 94.9343 43.7886 92.7349 43.7886H89.2563V44.9468C89.2684 45.0774 89.2541 45.2093 89.2144 45.3345C89.1718 45.4685 89.1013 45.5924 89.0073 45.6968C88.9133 45.8012 88.7977 45.8841 88.6694 45.9409C88.5412 45.9977 88.4024 46.0269 88.2622 46.0269C88.1221 46.0268 87.9832 45.9977 87.855 45.9409C87.7269 45.8841 87.612 45.8011 87.5181 45.6968C87.424 45.5923 87.3527 45.4686 87.3101 45.3345C87.2704 45.2093 87.256 45.0774 87.2681 44.9468V40.3657C87.2681 38.6092 87.9769 37.3028 89.0405 36.4438C90.0929 35.5941 91.4685 35.2007 92.7935 35.2007ZM108.048 35.2085C109.544 35.2085 110.927 35.6944 111.939 36.6792C112.953 37.6669 113.556 39.1202 113.556 40.9819V44.8755C113.566 44.9591 113.565 45.0441 113.552 45.1274C113.513 45.3872 113.372 45.6201 113.162 45.7759C112.951 45.9313 112.688 45.9974 112.429 45.9624C112.3 45.9453 112.175 45.9036 112.062 45.8384C111.949 45.7729 111.848 45.685 111.769 45.5806C111.69 45.4763 111.632 45.357 111.6 45.23C111.571 45.1142 111.563 44.9939 111.577 44.8755V43.7964H104.529V45.0591L104.525 45.0835C104.509 45.2135 104.467 45.3392 104.402 45.4526C104.337 45.5659 104.249 45.6645 104.145 45.7437C104.041 45.8229 103.923 45.8813 103.796 45.9146C103.672 45.9473 103.542 45.9554 103.415 45.939C103.287 45.9247 103.163 45.8855 103.05 45.8237C102.936 45.761 102.835 45.6761 102.753 45.5737C102.672 45.4712 102.612 45.3525 102.578 45.2261C102.546 45.1101 102.536 44.9891 102.548 44.8696V40.9819C102.548 39.1202 103.151 37.6669 104.165 36.6792C105.175 35.6944 106.556 35.2085 108.048 35.2085ZM92.7935 37.1724C92.1305 37.1724 91.2296 37.3508 90.5083 37.8394C89.8084 38.3136 89.2563 39.0905 89.2563 40.3657V41.7759H93.1411V41.8003C94.6428 41.7347 95.3318 41.3044 95.6587 40.9038C96.0226 40.4576 96.0298 39.9441 96.0298 39.6265C96.0298 38.7491 95.5797 38.1516 94.9409 37.7554C94.2876 37.3502 93.4551 37.1724 92.7935 37.1724ZM108.048 37.1147C107.043 37.1147 106.17 37.447 105.55 38.0679C104.932 38.6872 104.529 39.631 104.529 40.9243V41.7837H111.577V40.9243C111.577 39.6316 111.17 38.6884 110.55 38.0688C109.928 37.4476 109.054 37.1148 108.048 37.1147Z" fill="black"/>
<path d="M25.6499 36.9244C25.6884 36.6639 25.8295 36.4305 26.0405 36.274C26.1455 36.1963 26.2646 36.1392 26.3911 36.1071C26.5176 36.075 26.6496 36.0685 26.7788 36.0865C26.9081 36.1046 27.0331 36.1478 27.146 36.2135C27.2587 36.2792 27.3578 36.3664 27.437 36.4703C27.5163 36.5744 27.5739 36.6932 27.6069 36.8199C27.6372 36.936 27.6464 37.0564 27.6333 37.1754V41.0953C27.6333 42.3969 28.0391 43.3405 28.6577 43.9576C29.278 44.5764 30.1504 44.9048 31.1528 44.9049C32.1542 44.9049 33.0269 44.573 33.6479 43.9518C34.2673 43.3321 34.6733 42.3882 34.6733 41.0953V36.9889L34.6753 36.9664C34.7038 36.705 34.8363 36.4665 35.0415 36.3033C35.1431 36.2226 35.2598 36.1627 35.3843 36.1266C35.5087 36.0905 35.6392 36.0788 35.7681 36.0924C35.897 36.106 36.0229 36.1452 36.1372 36.2067C36.2512 36.2681 36.352 36.3514 36.4341 36.4518C36.5163 36.5523 36.5785 36.668 36.6157 36.7926C36.6505 36.9093 36.6629 37.0317 36.6528 37.153V41.0953C36.6528 42.9569 36.0507 44.4104 35.0376 45.3981C34.0272 46.383 32.645 46.8688 31.1528 46.8688C29.6609 46.8687 28.2774 46.3826 27.2651 45.3981C26.25 44.4105 25.645 42.9573 25.645 41.0953V37.1774C25.6355 37.0947 25.6367 37.0107 25.6489 36.9283L26.0513 36.986L25.6499 36.9244ZM59.9624 36.1403C60.2075 36.1748 60.4323 36.2984 60.5913 36.4889C60.7479 36.6765 60.8296 36.9155 60.8198 37.1598V41.0953C60.8198 42.3963 61.2276 43.3394 61.8481 43.9567C62.4707 44.5759 63.3454 44.9049 64.3481 44.9049C65.3493 44.9048 66.2213 44.5729 66.8423 43.9518C67.4617 43.3321 67.8677 42.3882 67.8677 41.0953V37.1559C67.8577 37.0758 67.8603 36.9943 67.8745 36.9147L67.8765 36.902L67.8794 36.8893C67.9378 36.651 68.0832 36.4437 68.2856 36.3063C68.488 36.169 68.7338 36.1105 68.9761 36.1412C69.2184 36.172 69.4417 36.29 69.603 36.4742C69.7635 36.6575 69.8506 36.8934 69.8472 37.1373V41.0953C69.8472 42.9381 69.2419 44.3907 68.228 45.3824C67.2168 46.3715 65.8338 46.8688 64.3394 46.8688C62.8473 46.8687 61.4659 46.3829 60.4556 45.3981C59.4424 44.4104 58.8394 42.9571 58.8394 41.0953V37.1774C58.8297 37.0934 58.8314 37.0081 58.8442 36.9244L58.8472 36.9078L58.8511 36.8912C58.9091 36.6494 59.0564 36.4387 59.2622 36.3004C59.4678 36.1624 59.7175 36.1058 59.9624 36.1403ZM15.2563 36.0865C15.517 36.0866 15.7685 36.1883 15.9546 36.3717C16.1408 36.5553 16.2465 36.8059 16.2466 37.068V41.108L16.2456 41.1207C16.2152 41.5979 16.283 42.0772 16.4458 42.528C16.6086 42.9785 16.8628 43.3921 17.1929 43.7438C17.5231 44.0955 17.9229 44.3783 18.3677 44.5739C18.8115 44.7689 19.2916 44.8731 19.7778 44.8805H20.0083C20.3012 44.8806 20.5708 44.9647 20.772 45.1461C20.9756 45.3298 21.0727 45.5814 21.0728 45.8375C21.0728 46.0848 20.9855 46.3377 20.7808 46.526C20.5785 46.712 20.3059 46.7945 20.0083 46.7946H19.6694C16.6931 46.7589 14.2662 44.5368 14.2661 41.0299V37.068C14.2662 36.8058 14.3719 36.5553 14.5581 36.3717C14.7442 36.1883 14.9957 36.0865 15.2563 36.0865ZM47.7593 35.8317C49.2513 35.8317 50.6328 36.3176 51.6431 37.3024C52.6562 38.2901 53.2583 39.7435 53.2583 41.6051V45.4811C53.2678 45.5618 53.2668 45.6438 53.2544 45.7242C53.2365 45.8524 53.193 45.9761 53.1274 46.0875C53.061 46.2002 52.9731 46.2991 52.8687 46.3776C52.7643 46.456 52.6453 46.5127 52.519 46.5455C52.3927 46.5784 52.2607 46.5864 52.1313 46.569L52.1216 46.568C51.8658 46.5274 51.6343 46.3899 51.4771 46.1832C51.3256 45.9841 51.2548 45.7356 51.2788 45.4869V41.5641C51.2788 40.2662 50.8742 39.3228 50.2563 38.7047C49.637 38.0851 48.7655 37.7546 47.7593 37.7545C46.7521 37.7545 45.8768 38.0836 45.2554 38.7008C44.6361 39.3161 44.231 40.255 44.231 41.5475V45.4879C44.241 45.5695 44.239 45.6528 44.2251 45.734L44.2192 45.7614C44.1608 45.9997 44.0155 46.2079 43.813 46.3453C43.6107 46.4826 43.3647 46.541 43.1226 46.5104C42.8804 46.4797 42.6569 46.3614 42.4956 46.1774C42.3351 45.9941 42.247 45.7573 42.2505 45.5133V41.6051C42.2505 39.7429 42.8562 38.2889 43.8716 37.3014C44.8839 36.317 46.2674 35.8317 47.7593 35.8317Z" fill="white"/>
</svg>
